<mxfile host="app.diagrams.net" modified="2022-12-18T18:54:35.331Z" agent="5.0 (Windows NT 10.0; Win64; x64) AppleWebKit/537.36 (KHTML, like Gecko) Chrome/107.0.0.0 Safari/537.36 OPR/93.0.0.0" etag="z54CXb4wCPoPWSHPEKbr" version="20.7.4" type="github">
  <diagram id="VsPfUK0BsPWMCRSnXzUu" name="Страница 1">
    <mxGraphModel dx="1426" dy="1531" grid="1" gridSize="10" guides="1" tooltips="1" connect="1" arrows="1" fold="1" page="1" pageScale="1" pageWidth="827" pageHeight="1169" math="0" shadow="0">
      <root>
        <mxCell id="0" />
        <mxCell id="1" parent="0" />
        <mxCell id="5ew_u-OObYazUknkJd4i-45" value="" style="rounded=0;whiteSpace=wrap;html=1;" parent="1" vertex="1">
          <mxGeometry x="70" y="-50" width="480" height="770" as="geometry" />
        </mxCell>
        <mxCell id="5ew_u-OObYazUknkJd4i-4" value="Покупатель" style="shape=umlActor;verticalLabelPosition=bottom;verticalAlign=top;html=1;outlineConnect=0;" parent="1" vertex="1">
          <mxGeometry y="190" width="30" height="60" as="geometry" />
        </mxCell>
        <mxCell id="5ew_u-OObYazUknkJd4i-5" value="Менеджер" style="shape=umlActor;verticalLabelPosition=bottom;verticalAlign=top;html=1;outlineConnect=0;" parent="1" vertex="1">
          <mxGeometry x="600" y="110" width="30" height="60" as="geometry" />
        </mxCell>
        <mxCell id="5ew_u-OObYazUknkJd4i-12" value="Просмотр списка товаров" style="ellipse;whiteSpace=wrap;html=1;" parent="1" vertex="1">
          <mxGeometry x="160" y="10" width="110" height="40" as="geometry" />
        </mxCell>
        <mxCell id="5ew_u-OObYazUknkJd4i-13" value="Изменение содержания корзины" style="ellipse;whiteSpace=wrap;html=1;" parent="1" vertex="1">
          <mxGeometry x="165" y="90" width="100" height="50" as="geometry" />
        </mxCell>
        <mxCell id="5ew_u-OObYazUknkJd4i-15" value="Оформление заказа на покупку товара" style="ellipse;whiteSpace=wrap;html=1;" parent="1" vertex="1">
          <mxGeometry x="150" y="180" width="150" height="50" as="geometry" />
        </mxCell>
        <mxCell id="5ew_u-OObYazUknkJd4i-16" value="Оплата товара" style="ellipse;whiteSpace=wrap;html=1;" parent="1" vertex="1">
          <mxGeometry x="130" y="450" width="140" height="40" as="geometry" />
        </mxCell>
        <mxCell id="5ew_u-OObYazUknkJd4i-17" value="Регистрация&amp;nbsp;" style="ellipse;whiteSpace=wrap;html=1;" parent="1" vertex="1">
          <mxGeometry x="122.5" y="290" width="95" height="40" as="geometry" />
        </mxCell>
        <mxCell id="5ew_u-OObYazUknkJd4i-18" value="Предоставление бонусной скидки" style="ellipse;whiteSpace=wrap;html=1;" parent="1" vertex="1">
          <mxGeometry x="270" y="245" width="110" height="50" as="geometry" />
        </mxCell>
        <mxCell id="5ew_u-OObYazUknkJd4i-20" value="" style="endArrow=none;html=1;rounded=0;exitX=0.5;exitY=0.5;exitDx=0;exitDy=0;exitPerimeter=0;entryX=0;entryY=0.5;entryDx=0;entryDy=0;" parent="1" source="5ew_u-OObYazUknkJd4i-4" target="5ew_u-OObYazUknkJd4i-15" edge="1">
          <mxGeometry width="50" height="50" relative="1" as="geometry">
            <mxPoint x="110" y="260" as="sourcePoint" />
            <mxPoint x="160" y="210" as="targetPoint" />
          </mxGeometry>
        </mxCell>
        <mxCell id="5ew_u-OObYazUknkJd4i-21" value="" style="endArrow=none;html=1;rounded=0;exitX=0.5;exitY=0;exitDx=0;exitDy=0;startArrow=classicThin;startFill=1;dashed=1;" parent="1" source="5ew_u-OObYazUknkJd4i-17" target="5ew_u-OObYazUknkJd4i-15" edge="1">
          <mxGeometry width="50" height="50" relative="1" as="geometry">
            <mxPoint x="160" y="280" as="sourcePoint" />
            <mxPoint x="210" y="230" as="targetPoint" />
          </mxGeometry>
        </mxCell>
        <mxCell id="5ew_u-OObYazUknkJd4i-22" value="" style="endArrow=classicThin;html=1;rounded=0;exitX=0.5;exitY=0;exitDx=0;exitDy=0;entryX=1;entryY=1;entryDx=0;entryDy=0;dashed=1;endFill=1;" parent="1" source="5ew_u-OObYazUknkJd4i-18" target="5ew_u-OObYazUknkJd4i-15" edge="1">
          <mxGeometry width="50" height="50" relative="1" as="geometry">
            <mxPoint x="270" y="270" as="sourcePoint" />
            <mxPoint x="270" y="220" as="targetPoint" />
          </mxGeometry>
        </mxCell>
        <mxCell id="5ew_u-OObYazUknkJd4i-24" value="Оплата товара наличными" style="ellipse;whiteSpace=wrap;html=1;" parent="1" vertex="1">
          <mxGeometry x="80" y="540" width="110" height="40" as="geometry" />
        </mxCell>
        <mxCell id="5ew_u-OObYazUknkJd4i-25" value="Оплата товара картой" style="ellipse;whiteSpace=wrap;html=1;" parent="1" vertex="1">
          <mxGeometry x="217.5" y="540" width="140" height="40" as="geometry" />
        </mxCell>
        <mxCell id="5ew_u-OObYazUknkJd4i-27" value="&amp;lt;ex&amp;gt;" style="text;html=1;strokeColor=none;fillColor=none;align=center;verticalAlign=middle;whiteSpace=wrap;rounded=0;" parent="1" vertex="1">
          <mxGeometry x="305" y="225" width="30" height="5" as="geometry" />
        </mxCell>
        <mxCell id="5ew_u-OObYazUknkJd4i-28" value="&amp;lt;in&amp;gt;" style="text;html=1;strokeColor=none;fillColor=none;align=center;verticalAlign=middle;whiteSpace=wrap;rounded=0;" parent="1" vertex="1">
          <mxGeometry x="180" y="250" width="50" height="20" as="geometry" />
        </mxCell>
        <mxCell id="5ew_u-OObYazUknkJd4i-29" value="" style="endArrow=none;html=1;rounded=0;entryX=0.5;entryY=0.5;entryDx=0;entryDy=0;entryPerimeter=0;" parent="1" source="5ew_u-OObYazUknkJd4i-16" target="5ew_u-OObYazUknkJd4i-4" edge="1">
          <mxGeometry width="50" height="50" relative="1" as="geometry">
            <mxPoint x="120" y="350" as="sourcePoint" />
            <mxPoint x="170" y="300" as="targetPoint" />
          </mxGeometry>
        </mxCell>
        <mxCell id="5ew_u-OObYazUknkJd4i-30" value="" style="endArrow=block;html=1;rounded=0;entryX=0.299;entryY=0.982;entryDx=0;entryDy=0;entryPerimeter=0;exitX=0.427;exitY=0.004;exitDx=0;exitDy=0;exitPerimeter=0;startArrow=none;startFill=0;endFill=0;" parent="1" source="5ew_u-OObYazUknkJd4i-24" target="5ew_u-OObYazUknkJd4i-16" edge="1">
          <mxGeometry width="50" height="50" relative="1" as="geometry">
            <mxPoint x="140" y="410" as="sourcePoint" />
            <mxPoint x="190" y="360" as="targetPoint" />
          </mxGeometry>
        </mxCell>
        <mxCell id="5ew_u-OObYazUknkJd4i-31" value="" style="endArrow=block;html=1;rounded=0;endFill=0;exitX=0.321;exitY=0.019;exitDx=0;exitDy=0;exitPerimeter=0;entryX=0.714;entryY=0.943;entryDx=0;entryDy=0;entryPerimeter=0;" parent="1" source="5ew_u-OObYazUknkJd4i-25" target="5ew_u-OObYazUknkJd4i-16" edge="1">
          <mxGeometry width="50" height="50" relative="1" as="geometry">
            <mxPoint x="310" y="410" as="sourcePoint" />
            <mxPoint x="380" y="350" as="targetPoint" />
          </mxGeometry>
        </mxCell>
        <mxCell id="5ew_u-OObYazUknkJd4i-32" value="Управление списком товаров" style="ellipse;whiteSpace=wrap;html=1;" parent="1" vertex="1">
          <mxGeometry x="380" y="70" width="140" height="70" as="geometry" />
        </mxCell>
        <mxCell id="5ew_u-OObYazUknkJd4i-37" value="" style="endArrow=none;html=1;rounded=0;exitX=0.736;exitY=0.069;exitDx=0;exitDy=0;exitPerimeter=0;entryX=0.5;entryY=0.5;entryDx=0;entryDy=0;entryPerimeter=0;" parent="1" source="5ew_u-OObYazUknkJd4i-18" target="5ew_u-OObYazUknkJd4i-5" edge="1">
          <mxGeometry width="50" height="50" relative="1" as="geometry">
            <mxPoint x="510" y="110" as="sourcePoint" />
            <mxPoint x="560" y="60" as="targetPoint" />
          </mxGeometry>
        </mxCell>
        <mxCell id="5ew_u-OObYazUknkJd4i-38" value="" style="endArrow=none;html=1;rounded=0;entryX=0.5;entryY=0.5;entryDx=0;entryDy=0;entryPerimeter=0;" parent="1" source="5ew_u-OObYazUknkJd4i-32" target="5ew_u-OObYazUknkJd4i-5" edge="1">
          <mxGeometry width="50" height="50" relative="1" as="geometry">
            <mxPoint x="500" y="100" as="sourcePoint" />
            <mxPoint x="550" y="50" as="targetPoint" />
          </mxGeometry>
        </mxCell>
        <mxCell id="5ew_u-OObYazUknkJd4i-46" value="" style="endArrow=classicThin;html=1;rounded=0;entryX=0.5;entryY=1;entryDx=0;entryDy=0;exitX=0.5;exitY=0;exitDx=0;exitDy=0;startArrow=none;startFill=0;dashed=1;endFill=1;" parent="1" source="5ew_u-OObYazUknkJd4i-13" target="5ew_u-OObYazUknkJd4i-12" edge="1">
          <mxGeometry width="50" height="50" relative="1" as="geometry">
            <mxPoint x="200" y="110" as="sourcePoint" />
            <mxPoint x="250" y="60" as="targetPoint" />
          </mxGeometry>
        </mxCell>
        <mxCell id="5ew_u-OObYazUknkJd4i-47" value="&amp;lt;in&amp;gt;" style="text;html=1;strokeColor=none;fillColor=none;align=center;verticalAlign=middle;whiteSpace=wrap;rounded=0;" parent="1" vertex="1">
          <mxGeometry x="210" y="60" width="40" height="20" as="geometry" />
        </mxCell>
        <mxCell id="5ew_u-OObYazUknkJd4i-50" value="" style="endArrow=classicThin;html=1;rounded=0;dashed=1;entryX=0.629;entryY=1.002;entryDx=0;entryDy=0;entryPerimeter=0;startArrow=none;startFill=0;endFill=1;" parent="1" source="5ew_u-OObYazUknkJd4i-15" target="5ew_u-OObYazUknkJd4i-13" edge="1">
          <mxGeometry width="50" height="50" relative="1" as="geometry">
            <mxPoint x="150" y="200" as="sourcePoint" />
            <mxPoint x="200" y="150" as="targetPoint" />
          </mxGeometry>
        </mxCell>
        <mxCell id="5ew_u-OObYazUknkJd4i-52" value="&amp;lt;in&amp;gt;" style="text;html=1;strokeColor=none;fillColor=none;align=center;verticalAlign=middle;whiteSpace=wrap;rounded=0;" parent="1" vertex="1">
          <mxGeometry x="225" y="150" width="40" height="20" as="geometry" />
        </mxCell>
        <mxCell id="5ew_u-OObYazUknkJd4i-58" value="" style="endArrow=none;dashed=1;html=1;rounded=0;exitX=0.643;exitY=0.003;exitDx=0;exitDy=0;endFill=0;exitPerimeter=0;startArrow=classicThin;startFill=1;" parent="1" source="5ew_u-OObYazUknkJd4i-63" target="5ew_u-OObYazUknkJd4i-59" edge="1">
          <mxGeometry width="50" height="50" relative="1" as="geometry">
            <mxPoint x="370" y="290" as="sourcePoint" />
            <mxPoint x="420" y="240" as="targetPoint" />
          </mxGeometry>
        </mxCell>
        <mxCell id="5ew_u-OObYazUknkJd4i-59" value="Сохранить квитанцию об оплате&amp;nbsp;&amp;nbsp;" style="ellipse;whiteSpace=wrap;html=1;" parent="1" vertex="1">
          <mxGeometry x="416.25" y="225" width="97.5" height="70" as="geometry" />
        </mxCell>
        <mxCell id="5ew_u-OObYazUknkJd4i-60" value="&amp;lt;ex&amp;gt;" style="text;html=1;strokeColor=none;fillColor=none;align=center;verticalAlign=middle;whiteSpace=wrap;rounded=0;" parent="1" vertex="1">
          <mxGeometry x="430" y="330" width="30" height="20" as="geometry" />
        </mxCell>
        <mxCell id="5ew_u-OObYazUknkJd4i-61" value="" style="endArrow=none;html=1;rounded=0;dashed=1;startArrow=classicThin;startFill=1;" parent="1" source="5ew_u-OObYazUknkJd4i-63" target="5ew_u-OObYazUknkJd4i-25" edge="1">
          <mxGeometry width="50" height="50" relative="1" as="geometry">
            <mxPoint x="370" y="290" as="sourcePoint" />
            <mxPoint x="403.49285863055616" y="320.9192655017491" as="targetPoint" />
          </mxGeometry>
        </mxCell>
        <mxCell id="5ew_u-OObYazUknkJd4i-63" value="Подтверждение&lt;br&gt;оплаты заказа&amp;nbsp;" style="ellipse;whiteSpace=wrap;html=1;" parent="1" vertex="1">
          <mxGeometry x="335" y="380" width="97" height="55" as="geometry" />
        </mxCell>
        <mxCell id="5ew_u-OObYazUknkJd4i-66" value="&amp;lt;in&amp;gt;" style="text;html=1;strokeColor=none;fillColor=none;align=center;verticalAlign=middle;whiteSpace=wrap;rounded=0;" parent="1" vertex="1">
          <mxGeometry x="320" y="480" width="60" height="30" as="geometry" />
        </mxCell>
        <mxCell id="5ew_u-OObYazUknkJd4i-67" value="Платежная система" style="shape=umlActor;verticalLabelPosition=bottom;verticalAlign=top;html=1;outlineConnect=0;" parent="1" vertex="1">
          <mxGeometry x="600" y="250" width="30" height="60" as="geometry" />
        </mxCell>
        <mxCell id="5ew_u-OObYazUknkJd4i-68" value="" style="endArrow=none;html=1;rounded=0;exitX=0.973;exitY=0.315;exitDx=0;exitDy=0;exitPerimeter=0;entryX=0.5;entryY=0.5;entryDx=0;entryDy=0;entryPerimeter=0;" parent="1" source="5ew_u-OObYazUknkJd4i-63" target="5ew_u-OObYazUknkJd4i-67" edge="1">
          <mxGeometry width="50" height="50" relative="1" as="geometry">
            <mxPoint x="500" y="330" as="sourcePoint" />
            <mxPoint x="550" y="280" as="targetPoint" />
          </mxGeometry>
        </mxCell>
        <mxCell id="5ew_u-OObYazUknkJd4i-75" value="Фильтры" style="ellipse;whiteSpace=wrap;html=1;" parent="1" vertex="1">
          <mxGeometry x="232.5" y="-40" width="72.5" height="20" as="geometry" />
        </mxCell>
        <mxCell id="5ew_u-OObYazUknkJd4i-76" value="Поиск&amp;nbsp;" style="ellipse;whiteSpace=wrap;html=1;" parent="1" vertex="1">
          <mxGeometry x="147.5" y="-40" width="70" height="20" as="geometry" />
        </mxCell>
        <mxCell id="5ew_u-OObYazUknkJd4i-77" value="" style="endArrow=none;html=1;rounded=0;exitX=0.661;exitY=0.028;exitDx=0;exitDy=0;exitPerimeter=0;entryX=0.393;entryY=1.007;entryDx=0;entryDy=0;startArrow=block;startFill=0;entryPerimeter=0;" parent="1" source="5ew_u-OObYazUknkJd4i-12" target="5ew_u-OObYazUknkJd4i-75" edge="1">
          <mxGeometry width="50" height="50" relative="1" as="geometry">
            <mxPoint x="250" y="40" as="sourcePoint" />
            <mxPoint x="300" y="-10" as="targetPoint" />
          </mxGeometry>
        </mxCell>
        <mxCell id="5ew_u-OObYazUknkJd4i-82" value="" style="endArrow=none;html=1;rounded=0;entryX=0.5;entryY=1;entryDx=0;entryDy=0;startArrow=block;startFill=0;" parent="1" source="5ew_u-OObYazUknkJd4i-12" target="5ew_u-OObYazUknkJd4i-76" edge="1">
          <mxGeometry width="50" height="50" relative="1" as="geometry">
            <mxPoint x="250" y="90" as="sourcePoint" />
            <mxPoint x="300" y="40" as="targetPoint" />
            <Array as="points" />
          </mxGeometry>
        </mxCell>
        <mxCell id="NsoH8pVkTyJm_LZlXLT9-8" value="" style="endArrow=none;html=1;rounded=0;exitX=0.5;exitY=0.5;exitDx=0;exitDy=0;endFill=0;exitPerimeter=0;entryX=0.962;entryY=0.306;entryDx=0;entryDy=0;entryPerimeter=0;" edge="1" parent="1" source="5ew_u-OObYazUknkJd4i-5" target="5ew_u-OObYazUknkJd4i-15">
          <mxGeometry width="50" height="50" relative="1" as="geometry">
            <mxPoint x="411.154" y="443.18499999999995" as="sourcePoint" />
            <mxPoint x="462.6688232509464" y="303.86180281882935" as="targetPoint" />
            <Array as="points" />
          </mxGeometry>
        </mxCell>
        <mxCell id="NsoH8pVkTyJm_LZlXLT9-13" value="" style="endArrow=none;endFill=0;endSize=12;html=1;rounded=0;entryX=0.073;entryY=0.757;entryDx=0;entryDy=0;entryPerimeter=0;exitX=0.5;exitY=0.5;exitDx=0;exitDy=0;exitPerimeter=0;" edge="1" parent="1" source="5ew_u-OObYazUknkJd4i-4" target="5ew_u-OObYazUknkJd4i-13">
          <mxGeometry width="160" relative="1" as="geometry">
            <mxPoint x="20" y="180" as="sourcePoint" />
            <mxPoint x="180" y="180" as="targetPoint" />
          </mxGeometry>
        </mxCell>
        <mxCell id="NsoH8pVkTyJm_LZlXLT9-15" value="" style="endArrow=classicThin;dashed=1;endFill=1;endSize=12;html=1;rounded=0;exitX=0.593;exitY=0.972;exitDx=0;exitDy=0;exitPerimeter=0;entryX=0.679;entryY=0;entryDx=0;entryDy=0;entryPerimeter=0;" edge="1" parent="1" source="5ew_u-OObYazUknkJd4i-15" target="5ew_u-OObYazUknkJd4i-16">
          <mxGeometry width="160" relative="1" as="geometry">
            <mxPoint x="240" y="290" as="sourcePoint" />
            <mxPoint x="400" y="290" as="targetPoint" />
          </mxGeometry>
        </mxCell>
        <mxCell id="NsoH8pVkTyJm_LZlXLT9-16" value="&amp;lt;in&amp;gt;" style="text;html=1;strokeColor=none;fillColor=none;align=center;verticalAlign=middle;whiteSpace=wrap;rounded=0;" vertex="1" parent="1">
          <mxGeometry x="225" y="330" width="50" height="20" as="geometry" />
        </mxCell>
        <mxCell id="NsoH8pVkTyJm_LZlXLT9-17" value="Удалить" style="ellipse;whiteSpace=wrap;html=1;" vertex="1" parent="1">
          <mxGeometry x="316.5" y="20" width="67" height="40" as="geometry" />
        </mxCell>
        <mxCell id="NsoH8pVkTyJm_LZlXLT9-18" value="Добавить" style="ellipse;whiteSpace=wrap;html=1;" vertex="1" parent="1">
          <mxGeometry x="390" y="-10" width="70" height="40" as="geometry" />
        </mxCell>
        <mxCell id="NsoH8pVkTyJm_LZlXLT9-19" value="Изменить" style="ellipse;whiteSpace=wrap;html=1;" vertex="1" parent="1">
          <mxGeometry x="470" width="70" height="40" as="geometry" />
        </mxCell>
        <mxCell id="NsoH8pVkTyJm_LZlXLT9-20" value="" style="endArrow=none;html=1;rounded=0;exitX=0.611;exitY=-0.007;exitDx=0;exitDy=0;exitPerimeter=0;entryX=0.282;entryY=0.924;entryDx=0;entryDy=0;startArrow=block;startFill=0;entryPerimeter=0;" edge="1" parent="1" source="5ew_u-OObYazUknkJd4i-32" target="NsoH8pVkTyJm_LZlXLT9-19">
          <mxGeometry width="50" height="50" relative="1" as="geometry">
            <mxPoint x="242.7099999999998" y="21.11999999999989" as="sourcePoint" />
            <mxPoint x="270.99249999999984" y="-9.8599999999999" as="targetPoint" />
          </mxGeometry>
        </mxCell>
        <mxCell id="NsoH8pVkTyJm_LZlXLT9-21" value="" style="endArrow=none;html=1;rounded=0;exitX=0.367;exitY=0.026;exitDx=0;exitDy=0;entryX=0.5;entryY=1;entryDx=0;entryDy=0;startArrow=block;startFill=0;exitPerimeter=0;" edge="1" parent="1" source="5ew_u-OObYazUknkJd4i-32" target="NsoH8pVkTyJm_LZlXLT9-18">
          <mxGeometry width="50" height="50" relative="1" as="geometry">
            <mxPoint x="497.51999999999975" y="84.82999999999993" as="sourcePoint" />
            <mxPoint x="499.74" y="46.960000000000264" as="targetPoint" />
            <Array as="points" />
          </mxGeometry>
        </mxCell>
        <mxCell id="NsoH8pVkTyJm_LZlXLT9-22" value="" style="endArrow=none;html=1;rounded=0;exitX=0;exitY=0;exitDx=0;exitDy=0;entryX=1;entryY=1;entryDx=0;entryDy=0;startArrow=block;startFill=0;" edge="1" parent="1" source="5ew_u-OObYazUknkJd4i-32" target="NsoH8pVkTyJm_LZlXLT9-17">
          <mxGeometry width="50" height="50" relative="1" as="geometry">
            <mxPoint x="460" y="80" as="sourcePoint" />
            <mxPoint x="435" y="40" as="targetPoint" />
            <Array as="points" />
          </mxGeometry>
        </mxCell>
      </root>
    </mxGraphModel>
  </diagram>
</mxfile>
